  0
SECTION
  2
HEADER
  9
$EXTMIN
 10
-53,895412
 20
-36,336606
  9
$EXTMAX
 10
72,303920
 20
11,877400
  0
ENDSEC
0
SECTION
2
TABLES
0
TABLE
0
LAYER
2
Segundo Plano
62
1
0
ENDTAB
0
ENDSEC
0
SECTION
2
ENTITIES
  0
SOLID
 62
7
 10
28,244366
 20
8,573757
 11
28,244366
 21
9,973757
 12
50,304366
 22
8,573757
 13
50,304366
 23
9,973757
  0
LINE
  8
Segundo Plano
  6
CONTINUOUS
 10
28,244366
 20
9,973757
 11
50,304366
 21
9,973757
 39
0
 62
0
  0
LINE
  8
Segundo Plano
  6
CONTINUOUS
 10
50,304366
 20
9,973757
 11
50,304366
 21
8,573757
 39
0
 62
0
  0
LINE
  8
Segundo Plano
  6
CONTINUOUS
 10
50,304366
 20
8,573757
 11
28,244366
 21
8,573757
 39
0
 62
0
  0
LINE
  8
Segundo Plano
  6
CONTINUOUS
 10
28,244366
 20
8,573757
 11
28,244366
 21
9,973757
 39
0
 62
0
  0
TEXT
  8
Segundo Plano
  6
CONTINUOUS
 10
39,274366
 20
8,973757
 40
1,000000
 50
0,000000
 72
1
  7
0
  1
Mamute
 39
1
 62
0
  0
SOLID
 62
7
 10
28,244366
 20
5,173757
 11
28,244366
 21
8,573757
 12
50,304366
 22
5,173757
 13
50,304366
 23
8,573757
  0
LINE
  8
Segundo Plano
  6
CONTINUOUS
 10
28,244366
 20
8,573757
 11
50,304366
 21
8,573757
 39
0
 62
0
  0
LINE
  8
Segundo Plano
  6
CONTINUOUS
 10
50,304366
 20
8,573757
 11
50,304366
 21
5,173757
 39
0
 62
0
  0
LINE
  8
Segundo Plano
  6
CONTINUOUS
 10
50,304366
 20
5,173757
 11
28,244366
 21
5,173757
 39
0
 62
0
  0
LINE
  8
Segundo Plano
  6
CONTINUOUS
 10
28,244366
 20
5,173757
 11
28,244366
 21
8,573757
 39
0
 62
0
  0
TEXT
  8
Segundo Plano
  6
CONTINUOUS
 10
28,394366
 20
7,913757
 40
0,800000
 50
0,000000
 72
0
  7
0
  1
-tempoProximaParada: int
 39
1
 62
0
  0
TEXT
  8
Segundo Plano
  6
CONTINUOUS
 10
28,394366
 20
7,113757
 40
0,800000
 50
0,000000
 72
0
  7
0
  1
-pilhaAlunos: ArrayList<EntradaMamute>
 39
1
 62
0
  0
TEXT
  8
Segundo Plano
  6
CONTINUOUS
 10
28,394366
 20
6,313757
 40
0,800000
 50
0,000000
 72
0
  7
0
  1
-CAPACIDADE: final int = 10
 39
1
 62
0
  0
TEXT
  8
Segundo Plano
  6
CONTINUOUS
 10
28,394366
 20
5,513757
 40
0,800000
 50
0,000000
 72
0
  7
0
  1
+VELOCIDADE: final int = 2
 39
1
 62
0
  0
SOLID
 62
7
 10
28,244366
 20
-1,426243
 11
28,244366
 21
5,173757
 12
50,304366
 22
-1,426243
 13
50,304366
 23
5,173757
  0
LINE
  8
Segundo Plano
  6
CONTINUOUS
 10
28,244366
 20
5,173757
 11
50,304366
 21
5,173757
 39
0
 62
0
  0
LINE
  8
Segundo Plano
  6
CONTINUOUS
 10
50,304366
 20
5,173757
 11
50,304366
 21
-1,426243
 39
0
 62
0
  0
LINE
  8
Segundo Plano
  6
CONTINUOUS
 10
50,304366
 20
-1,426243
 11
28,244366
 21
-1,426243
 39
0
 62
0
  0
LINE
  8
Segundo Plano
  6
CONTINUOUS
 10
28,244366
 20
-1,426243
 11
28,244366
 21
5,173757
 39
0
 62
0
  0
TEXT
  8
Segundo Plano
  6
CONTINUOUS
 10
28,394366
 20
4,513757
 40
0,800000
 50
0,000000
 72
0
  7
0
  1
+Mamute(localizacaoAtual,localizacaoDestino): construtor
 39
1
 62
0
  0
TEXT
  8
Segundo Plano
  6
CONTINUOUS
 10
28,394366
 20
3,713757
 40
0,800000
 50
0,000000
 72
0
  7
0
  1
+estaDispinivel(tempoSimulacao, PontoParada): boolean
 39
1
 62
0
  0
TEXT
  8
Segundo Plano
  6
CONTINUOUS
 10
28,394366
 20
2,913757
 40
0,800000
 50
0,000000
 72
0
  7
0
  1
 realizarPercuso(Localizacao,Localizacao): void
 39
1
 62
0
  0
TEXT
  8
Segundo Plano
  6
CONTINUOUS
 10
28,394366
 20
2,113757
 40
0,800000
 50
0,000000
 72
0
  7
0
  1
-descerAlunos(): void
 39
1
 62
0
  0
TEXT
  8
Segundo Plano
  6
CONTINUOUS
 10
28,394366
 20
1,313757
 40
0,800000
 50
0,000000
 72
0
  7
0
  1
-definePosicao(Localizacao): Localizacao
 39
1
 62
0
  0
TEXT
  8
Segundo Plano
  6
CONTINUOUS
 10
28,394366
 20
0,513757
 40
0,800000
 50
0,000000
 72
0
  7
0
  1
+embarcarAluno(Aluno): void
 39
1
 62
0
  0
TEXT
  8
Segundo Plano
  6
CONTINUOUS
 10
28,394366
 20
-0,286243
 40
0,800000
 50
0,000000
 72
0
  7
0
  1
+estaCheio(): boolean
 39
1
 62
0
  0
TEXT
  8
Segundo Plano
  6
CONTINUOUS
 10
28,394366
 20
-1,086243
 40
0,800000
 50
0,000000
 72
0
  7
0
  1
+setProximaEntrada(tempoEntrada,tempoSimulacao): voi
 39
1
 62
0
  0
SOLID
 62
7
 10
-18,525917
 20
3,053831
 11
-18,525917
 21
4,453831
 12
-3,780917
 22
3,053831
 13
-3,780917
 23
4,453831
  0
LINE
  8
Segundo Plano
  6
CONTINUOUS
 10
-18,525917
 20
4,453831
 11
-3,780917
 21
4,453831
 39
0
 62
0
  0
LINE
  8
Segundo Plano
  6
CONTINUOUS
 10
-3,780917
 20
4,453831
 11
-3,780917
 21
3,053831
 39
0
 62
0
  0
LINE
  8
Segundo Plano
  6
CONTINUOUS
 10
-3,780917
 20
3,053831
 11
-18,525917
 21
3,053831
 39
0
 62
0
  0
LINE
  8
Segundo Plano
  6
CONTINUOUS
 10
-18,525917
 20
3,053831
 11
-18,525917
 21
4,453831
 39
0
 62
0
  0
TEXT
  8
Segundo Plano
  6
CONTINUOUS
 10
-11,153417
 20
3,453831
 40
1,000000
 50
0,000000
 72
1
  7
0
  1
PontoParada
 39
1
 62
0
  0
SOLID
 62
7
 10
-18,525917
 20
1,253831
 11
-18,525917
 21
3,053831
 12
-3,780917
 22
1,253831
 13
-3,780917
 23
3,053831
  0
LINE
  8
Segundo Plano
  6
CONTINUOUS
 10
-18,525917
 20
3,053831
 11
-3,780917
 21
3,053831
 39
0
 62
0
  0
LINE
  8
Segundo Plano
  6
CONTINUOUS
 10
-3,780917
 20
3,053831
 11
-3,780917
 21
1,253831
 39
0
 62
0
  0
LINE
  8
Segundo Plano
  6
CONTINUOUS
 10
-3,780917
 20
1,253831
 11
-18,525917
 21
1,253831
 39
0
 62
0
  0
LINE
  8
Segundo Plano
  6
CONTINUOUS
 10
-18,525917
 20
1,253831
 11
-18,525917
 21
3,053831
 39
0
 62
0
  0
TEXT
  8
Segundo Plano
  6
CONTINUOUS
 10
-18,375917
 20
2,393831
 40
0,800000
 50
0,000000
 72
0
  7
0
  1
-filaAlunos: ArrayList<Aluno>
 39
1
 62
0
  0
TEXT
  8
Segundo Plano
  6
CONTINUOUS
 10
-18,375917
 20
1,593831
 40
0,800000
 50
0,000000
 72
0
  7
0
  1
-CAPACIDADE: final int = 15
 39
1
 62
0
  0
SOLID
 62
7
 10
-18,525917
 20
-9,346169
 11
-18,525917
 21
1,253831
 12
-3,780917
 22
-9,346169
 13
-3,780917
 23
1,253831
  0
LINE
  8
Segundo Plano
  6
CONTINUOUS
 10
-18,525917
 20
1,253831
 11
-3,780917
 21
1,253831
 39
0
 62
0
  0
LINE
  8
Segundo Plano
  6
CONTINUOUS
 10
-3,780917
 20
1,253831
 11
-3,780917
 21
-9,346169
 39
0
 62
0
  0
LINE
  8
Segundo Plano
  6
CONTINUOUS
 10
-3,780917
 20
-9,346169
 11
-18,525917
 21
-9,346169
 39
0
 62
0
  0
LINE
  8
Segundo Plano
  6
CONTINUOUS
 10
-18,525917
 20
-9,346169
 11
-18,525917
 21
1,253831
 39
0
 62
0
  0
TEXT
  8
Segundo Plano
  6
CONTINUOUS
 10
-18,375917
 20
0,593831
 40
0,800000
 50
0,000000
 72
0
  7
0
  1
+PontoParada(Localizacao): construtor
 39
1
 62
0
  0
TEXT
  8
Segundo Plano
  6
CONTINUOUS
 10
-18,375917
 20
-0,206169
 40
0,800000
 50
0,000000
 72
0
  7
0
  1
+removerAluno(): Aluno
 39
1
 62
0
  0
TEXT
  8
Segundo Plano
  6
CONTINUOUS
 10
-18,375917
 20
-1,006169
 40
0,800000
 50
0,000000
 72
0
  7
0
  1
+alunoEmbarcado(): boolean
 39
1
 62
0
  0
TEXT
  8
Segundo Plano
  6
CONTINUOUS
 10
-18,375917
 20
-1,806169
 40
0,800000
 50
0,000000
 72
0
  7
0
  1
+getPrimeiroAluno(): void
 39
1
 62
0
  0
TEXT
  8
Segundo Plano
  6
CONTINUOUS
 10
-18,375917
 20
-2,606169
 40
0,800000
 50
0,000000
 72
0
  7
0
  1
+getPrimeiroTempoEntrada(): int
 39
1
 62
0
  0
TEXT
  8
Segundo Plano
  6
CONTINUOUS
 10
-18,375917
 20
-3,406169
 40
0,800000
 50
0,000000
 72
0
  7
0
  1
+embarcarAluno(): void
 39
1
 62
0
  0
TEXT
  8
Segundo Plano
  6
CONTINUOUS
 10
-18,375917
 20
-4,206169
 40
0,800000
 50
0,000000
 72
0
  7
0
  1
+adicionarAluno(Aluno): Aluno
 39
1
 62
0
  0
TEXT
  8
Segundo Plano
  6
CONTINUOUS
 10
-18,375917
 20
-5,006169
 40
0,800000
 50
0,000000
 72
0
  7
0
  1
+estaVazia(): boolean
 39
1
 62
0
  0
TEXT
  8
Segundo Plano
  6
CONTINUOUS
 10
-18,375917
 20
-5,806169
 40
0,800000
 50
0,000000
 72
0
  7
0
  1
+estaCheia(): boolean
 39
1
 62
0
  0
TEXT
  8
Segundo Plano
  6
CONTINUOUS
 10
-18,375917
 20
-6,606169
 40
0,800000
 50
0,000000
 72
0
  7
0
  1
+posicaoLivre(): Localizacao
 39
1
 62
0
  0
TEXT
  8
Segundo Plano
  6
CONTINUOUS
 10
-18,375917
 20
-7,406169
 40
0,800000
 50
0,000000
 72
0
  7
0
  1
+atualizarFila(int): boolean
 39
1
 62
0
  0
TEXT
  8
Segundo Plano
  6
CONTINUOUS
 10
-18,375917
 20
-8,206169
 40
0,800000
 50
0,000000
 72
0
  7
0
  1
+tamanhoFila(): int
 39
1
 62
0
  0
TEXT
  8
Segundo Plano
  6
CONTINUOUS
 10
-18,375917
 20
-9,006169
 40
0,800000
 50
0,000000
 72
0
  7
0
  1
+getFila(): List<Aluno>
 39
1
 62
0
  0
SOLID
 62
7
 10
-1,061530
 20
6,127465
 11
-1,061530
 21
7,527465
 12
25,618470
 22
6,127465
 13
25,618470
 23
7,527465
  0
LINE
  8
Segundo Plano
  6
CONTINUOUS
 10
-1,061530
 20
7,527465
 11
25,618470
 21
7,527465
 39
0
 62
0
  0
LINE
  8
Segundo Plano
  6
CONTINUOUS
 10
25,618470
 20
7,527465
 11
25,618470
 21
6,127465
 39
0
 62
0
  0
LINE
  8
Segundo Plano
  6
CONTINUOUS
 10
25,618470
 20
6,127465
 11
-1,061530
 21
6,127465
 39
0
 62
0
  0
LINE
  8
Segundo Plano
  6
CONTINUOUS
 10
-1,061530
 20
6,127465
 11
-1,061530
 21
7,527465
 39
0
 62
0
  0
TEXT
  8
Segundo Plano
  6
CONTINUOUS
 10
12,278470
 20
6,527465
 40
1,000000
 50
0,000000
 72
1
  7
0
  1
Aluno
 39
1
 62
0
  0
SOLID
 62
7
 10
-1,061530
 20
4,327465
 11
-1,061530
 21
6,127465
 12
25,618470
 22
4,327465
 13
25,618470
 23
6,127465
  0
LINE
  8
Segundo Plano
  6
CONTINUOUS
 10
-1,061530
 20
6,127465
 11
25,618470
 21
6,127465
 39
0
 62
0
  0
LINE
  8
Segundo Plano
  6
CONTINUOUS
 10
25,618470
 20
6,127465
 11
25,618470
 21
4,327465
 39
0
 62
0
  0
LINE
  8
Segundo Plano
  6
CONTINUOUS
 10
25,618470
 20
4,327465
 11
-1,061530
 21
4,327465
 39
0
 62
0
  0
LINE
  8
Segundo Plano
  6
CONTINUOUS
 10
-1,061530
 20
4,327465
 11
-1,061530
 21
6,127465
 39
0
 62
0
  0
TEXT
  8
Segundo Plano
  6
CONTINUOUS
 10
-0,911530
 20
5,467465
 40
0,800000
 50
0,000000
 72
0
  7
0
  1
-tempoEntrada: int
 39
1
 62
0
  0
TEXT
  8
Segundo Plano
  6
CONTINUOUS
 10
-0,911530
 20
4,667465
 40
0,800000
 50
0,000000
 72
0
  7
0
  1
-embarcou: boolean
 39
1
 62
0
  0
SOLID
 62
7
 10
-1,061530
 20
0,927465
 11
-1,061530
 21
4,327465
 12
25,618470
 22
0,927465
 13
25,618470
 23
4,327465
  0
LINE
  8
Segundo Plano
  6
CONTINUOUS
 10
-1,061530
 20
4,327465
 11
25,618470
 21
4,327465
 39
0
 62
0
  0
LINE
  8
Segundo Plano
  6
CONTINUOUS
 10
25,618470
 20
4,327465
 11
25,618470
 21
0,927465
 39
0
 62
0
  0
LINE
  8
Segundo Plano
  6
CONTINUOUS
 10
25,618470
 20
0,927465
 11
-1,061530
 21
0,927465
 39
0
 62
0
  0
LINE
  8
Segundo Plano
  6
CONTINUOUS
 10
-1,061530
 20
0,927465
 11
-1,061530
 21
4,327465
 39
0
 62
0
  0
TEXT
  8
Segundo Plano
  6
CONTINUOUS
 10
-0,911530
 20
3,667465
 40
0,800000
 50
0,000000
 72
0
  7
0
  1
+Aluno(localizacaoAtual,localizacaoDestino,tempoEntrada): construtor
 39
1
 62
0
  0
TEXT
  8
Segundo Plano
  6
CONTINUOUS
 10
-0,911530
 20
2,867465
 40
0,800000
 50
0,000000
 72
0
  7
0
  1
+getTempoEntrada(): int
 39
1
 62
0
  0
TEXT
  8
Segundo Plano
  6
CONTINUOUS
 10
-0,911530
 20
2,067465
 40
0,800000
 50
0,000000
 72
0
  7
0
  1
+setEmbarcou(): void
 39
1
 62
0
  0
TEXT
  8
Segundo Plano
  6
CONTINUOUS
 10
-0,911530
 20
1,267465
 40
0,800000
 50
0,000000
 72
0
  7
0
  1
+getEmbarcou(): boolean
 39
1
 62
0
  0
SOLID
 62
7
 10
-40,035108
 20
3,498089
 11
-40,035108
 21
4,898089
 12
-21,055108
 22
3,498089
 13
-21,055108
 23
4,898089
  0
LINE
  8
Segundo Plano
  6
CONTINUOUS
 10
-40,035108
 20
4,898089
 11
-21,055108
 21
4,898089
 39
0
 62
0
  0
LINE
  8
Segundo Plano
  6
CONTINUOUS
 10
-21,055108
 20
4,898089
 11
-21,055108
 21
3,498089
 39
0
 62
0
  0
LINE
  8
Segundo Plano
  6
CONTINUOUS
 10
-21,055108
 20
3,498089
 11
-40,035108
 21
3,498089
 39
0
 62
0
  0
LINE
  8
Segundo Plano
  6
CONTINUOUS
 10
-40,035108
 20
3,498089
 11
-40,035108
 21
4,898089
 39
0
 62
0
  0
TEXT
  8
Segundo Plano
  6
CONTINUOUS
 10
-30,545108
 20
3,898089
 40
1,000000
 50
0,000000
 72
1
  7
0
  1
Simulacao
 39
1
 62
0
  0
SOLID
 62
7
 10
-40,035108
 20
-2,301911
 11
-40,035108
 21
3,498089
 12
-21,055108
 22
-2,301911
 13
-21,055108
 23
3,498089
  0
LINE
  8
Segundo Plano
  6
CONTINUOUS
 10
-40,035108
 20
3,498089
 11
-21,055108
 21
3,498089
 39
0
 62
0
  0
LINE
  8
Segundo Plano
  6
CONTINUOUS
 10
-21,055108
 20
3,498089
 11
-21,055108
 21
-2,301911
 39
0
 62
0
  0
LINE
  8
Segundo Plano
  6
CONTINUOUS
 10
-21,055108
 20
-2,301911
 11
-40,035108
 21
-2,301911
 39
0
 62
0
  0
LINE
  8
Segundo Plano
  6
CONTINUOUS
 10
-40,035108
 20
-2,301911
 11
-40,035108
 21
3,498089
 39
0
 62
0
  0
TEXT
  8
Segundo Plano
  6
CONTINUOUS
 10
-39,885108
 20
2,838089
 40
0,800000
 50
0,000000
 72
0
  7
0
  1
-janelaSimulacao: JanelaSimilacao
 39
1
 62
0
  0
TEXT
  8
Segundo Plano
  6
CONTINUOUS
 10
-39,885108
 20
2,038089
 40
0,800000
 50
0,000000
 72
0
  7
0
  1
-mapa: Mapa
 39
1
 62
0
  0
TEXT
  8
Segundo Plano
  6
CONTINUOUS
 10
-39,885108
 20
1,238089
 40
0,800000
 50
0,000000
 72
0
  7
0
  1
-mamute: Mamute
 39
1
 62
0
  0
TEXT
  8
Segundo Plano
  6
CONTINUOUS
 10
-39,885108
 20
0,438089
 40
0,800000
 50
0,000000
 72
0
  7
0
  1
-pontoEmbarque: PontoParada
 39
1
 62
0
  0
TEXT
  8
Segundo Plano
  6
CONTINUOUS
 10
-39,885108
 20
-0,361911
 40
0,800000
 50
0,000000
 72
0
  7
0
  1
-pontoDesembarque: PontoParada
 39
1
 62
0
  0
TEXT
  8
Segundo Plano
  6
CONTINUOUS
 10
-39,885108
 20
-1,161911
 40
0,800000
 50
0,000000
 72
0
  7
0
  1
-cachorro: Cachorro
 39
1
 62
0
  0
TEXT
  8
Segundo Plano
  6
CONTINUOUS
 10
-39,885108
 20
-1,961911
 40
0,800000
 50
0,000000
 72
0
  7
0
  1
-instanciaUnica: static Simulacao
 39
1
 62
0
  0
SOLID
 62
7
 10
-40,035108
 20
-8,101911
 11
-40,035108
 21
-2,301911
 12
-21,055108
 22
-8,101911
 13
-21,055108
 23
-2,301911
  0
LINE
  8
Segundo Plano
  6
CONTINUOUS
 10
-40,035108
 20
-2,301911
 11
-21,055108
 21
-2,301911
 39
0
 62
0
  0
LINE
  8
Segundo Plano
  6
CONTINUOUS
 10
-21,055108
 20
-2,301911
 11
-21,055108
 21
-8,101911
 39
0
 62
0
  0
LINE
  8
Segundo Plano
  6
CONTINUOUS
 10
-21,055108
 20
-8,101911
 11
-40,035108
 21
-8,101911
 39
0
 62
0
  0
LINE
  8
Segundo Plano
  6
CONTINUOUS
 10
-40,035108
 20
-8,101911
 11
-40,035108
 21
-2,301911
 39
0
 62
0
  0
TEXT
  8
Segundo Plano
  6
CONTINUOUS
 10
-39,885108
 20
-2,961911
 40
0,800000
 50
0,000000
 72
0
  7
0
  1
-Simulacao(): construtor
 39
1
 62
0
  0
TEXT
  8
Segundo Plano
  6
CONTINUOUS
 10
-39,885108
 20
-3,761911
 40
0,800000
 50
0,000000
 72
0
  7
0
  1
+getInstance(): static Simulacao
 39
1
 62
0
  0
TEXT
  8
Segundo Plano
  6
CONTINUOUS
 10
-39,885108
 20
-4,561911
 40
0,800000
 50
0,000000
 72
0
  7
0
  1
+executarSimulacao(tempoSimulacao): void
 39
1
 62
0
  0
TEXT
  8
Segundo Plano
  6
CONTINUOUS
 10
-39,885108
 20
-5,361911
 40
0,800000
 50
0,000000
 72
0
  7
0
  1
-executarUmPasso(tempoSimulacao): void
 39
1
 62
0
  0
TEXT
  8
Segundo Plano
  6
CONTINUOUS
 10
-39,885108
 20
-6,161911
 40
0,800000
 50
0,000000
 72
0
  7
0
  1
-criarAlunos(tempoSimulacao,pontoParada): void
 39
1
 62
0
  0
TEXT
  8
Segundo Plano
  6
CONTINUOUS
 10
-39,885108
 20
-6,961911
 40
0,800000
 50
0,000000
 72
0
  7
0
  1
-embarcarAluno(tempoSimulacao,pontoParada): void
 39
1
 62
0
  0
TEXT
  8
Segundo Plano
  6
CONTINUOUS
 10
-39,885108
 20
-7,761911
 40
0,800000
 50
0,000000
 72
0
  7
0
  1
-esperar(milisegundos): void
 39
1
 62
0
  0
SOLID
 62
7
 10
-37,117036
 20
8,327400
 11
-37,117036
 21
11,827400
 12
-23,994536
 22
8,327400
 13
-23,994536
 23
11,827400
  0
LINE
  8
Segundo Plano
  6
CONTINUOUS
 10
-37,117036
 20
11,827400
 11
-23,994536
 21
11,827400
 39
0
 62
0
  0
LINE
  8
Segundo Plano
  6
CONTINUOUS
 10
-23,994536
 20
11,827400
 11
-23,994536
 21
8,327400
 39
0
 62
0
  0
LINE
  8
Segundo Plano
  6
CONTINUOUS
 10
-23,994536
 20
8,327400
 11
-37,117036
 21
8,327400
 39
0
 62
0
  0
LINE
  8
Segundo Plano
  6
CONTINUOUS
 10
-37,117036
 20
8,327400
 11
-37,117036
 21
11,827400
 39
0
 62
0
  0
TEXT
  8
Segundo Plano
  6
CONTINUOUS
 10
-30,555786
 20
10,827400
 40
1,000000
 50
0,000000
 72
1
  7
0
  1
Principal
 39
1
 62
0
  0
TEXT
  8
Segundo Plano
  6
CONTINUOUS
 10
-30,555786
 20
10,067400
 40
0,700000
 50
0,000000
 72
1
  7
0
  1
Classe que contém o método main, responsável
 39
1
 62
0
  0
TEXT
  8
Segundo Plano
  6
CONTINUOUS
 10
-30,555786
 20
9,367400
 40
0,700000
 50
0,000000
 72
1
  7
0
  1
apenas por instanciar um único objeto Simulacao e
 39
1
 62
0
  0
TEXT
  8
Segundo Plano
  6
CONTINUOUS
 10
-30,555786
 20
8,667400
 40
0,700000
 50
0,000000
 72
1
  7
0
  1
chamar o método para executar a simulação. 
 39
1
 62
0
  0
SOLID
 62
7
 10
-37,117036
 20
7,327400
 11
-37,117036
 21
8,327400
 12
-23,994536
 22
7,327400
 13
-23,994536
 23
8,327400
  0
LINE
  8
Segundo Plano
  6
CONTINUOUS
 10
-37,117036
 20
8,327400
 11
-23,994536
 21
8,327400
 39
0
 62
0
  0
LINE
  8
Segundo Plano
  6
CONTINUOUS
 10
-23,994536
 20
8,327400
 11
-23,994536
 21
7,327400
 39
0
 62
0
  0
LINE
  8
Segundo Plano
  6
CONTINUOUS
 10
-23,994536
 20
7,327400
 11
-37,117036
 21
7,327400
 39
0
 62
0
  0
LINE
  8
Segundo Plano
  6
CONTINUOUS
 10
-37,117036
 20
7,327400
 11
-37,117036
 21
8,327400
 39
0
 62
0
  0
TEXT
  8
Segundo Plano
  6
CONTINUOUS
 10
-36,967036
 20
7,667400
 40
0,800000
 50
0,000000
 72
0
  7
0
  1
+main(): void
 39
1
 62
0
  0
SOLID
 62
7
 10
-53,845412
 20
-15,063696
 11
-53,845412
 21
-13,663696
 12
-40,255412
 22
-15,063696
 13
-40,255412
 23
-13,663696
  0
LINE
  8
Segundo Plano
  6
CONTINUOUS
 10
-53,845412
 20
-13,663696
 11
-40,255412
 21
-13,663696
 39
0
 62
0
  0
LINE
  8
Segundo Plano
  6
CONTINUOUS
 10
-40,255412
 20
-13,663696
 11
-40,255412
 21
-15,063696
 39
0
 62
0
  0
LINE
  8
Segundo Plano
  6
CONTINUOUS
 10
-40,255412
 20
-15,063696
 11
-53,845412
 21
-15,063696
 39
0
 62
0
  0
LINE
  8
Segundo Plano
  6
CONTINUOUS
 10
-53,845412
 20
-15,063696
 11
-53,845412
 21
-13,663696
 39
0
 62
0
  0
TEXT
  8
Segundo Plano
  6
CONTINUOUS
 10
-47,050412
 20
-14,663696
 40
1,000000
 50
0,000000
 72
1
  7
0
  1
JanelaSimulacao
 39
1
 62
0
  0
SOLID
 62
7
 10
-53,845412
 20
-16,863696
 11
-53,845412
 21
-15,063696
 12
-40,255412
 22
-16,863696
 13
-40,255412
 23
-15,063696
  0
LINE
  8
Segundo Plano
  6
CONTINUOUS
 10
-53,845412
 20
-15,063696
 11
-40,255412
 21
-15,063696
 39
0
 62
0
  0
LINE
  8
Segundo Plano
  6
CONTINUOUS
 10
-40,255412
 20
-15,063696
 11
-40,255412
 21
-16,863696
 39
0
 62
0
  0
LINE
  8
Segundo Plano
  6
CONTINUOUS
 10
-40,255412
 20
-16,863696
 11
-53,845412
 21
-16,863696
 39
0
 62
0
  0
LINE
  8
Segundo Plano
  6
CONTINUOUS
 10
-53,845412
 20
-16,863696
 11
-53,845412
 21
-15,063696
 39
0
 62
0
  0
TEXT
  8
Segundo Plano
  6
CONTINUOUS
 10
-53,695412
 20
-15,723696
 40
0,800000
 50
0,000000
 72
0
  7
0
  1
-mapa: Mapa
 39
1
 62
0
  0
TEXT
  8
Segundo Plano
  6
CONTINUOUS
 10
-53,695412
 20
-16,523696
 40
0,800000
 50
0,000000
 72
0
  7
0
  1
+visaoMapa: VisaoMapa
 39
1
 62
0
  0
SOLID
 62
7
 10
-53,845412
 20
-18,663696
 11
-53,845412
 21
-16,863696
 12
-40,255412
 22
-18,663696
 13
-40,255412
 23
-16,863696
  0
LINE
  8
Segundo Plano
  6
CONTINUOUS
 10
-53,845412
 20
-16,863696
 11
-40,255412
 21
-16,863696
 39
0
 62
0
  0
LINE
  8
Segundo Plano
  6
CONTINUOUS
 10
-40,255412
 20
-16,863696
 11
-40,255412
 21
-18,663696
 39
0
 62
0
  0
LINE
  8
Segundo Plano
  6
CONTINUOUS
 10
-40,255412
 20
-18,663696
 11
-53,845412
 21
-18,663696
 39
0
 62
0
  0
LINE
  8
Segundo Plano
  6
CONTINUOUS
 10
-53,845412
 20
-18,663696
 11
-53,845412
 21
-16,863696
 39
0
 62
0
  0
TEXT
  8
Segundo Plano
  6
CONTINUOUS
 10
-53,695412
 20
-17,523696
 40
0,800000
 50
0,000000
 72
0
  7
0
  1
+JanelaSimulacao(Mapa): Construtor
 39
1
 62
0
  0
TEXT
  8
Segundo Plano
  6
CONTINUOUS
 10
-53,695412
 20
-18,323696
 40
0,800000
 50
0,000000
 72
0
  7
0
  1
+excutarAcao(): void
 39
1
 62
0
  0
SOLID
 62
7
 10
-37,178986
 20
-12,663362
 11
-37,178986
 21
-11,263362
 12
-23,973986
 22
-12,663362
 13
-23,973986
 23
-11,263362
  0
LINE
  8
Segundo Plano
  6
CONTINUOUS
 10
-37,178986
 20
-11,263362
 11
-23,973986
 21
-11,263362
 39
0
 62
0
  0
LINE
  8
Segundo Plano
  6
CONTINUOUS
 10
-23,973986
 20
-11,263362
 11
-23,973986
 21
-12,663362
 39
0
 62
0
  0
LINE
  8
Segundo Plano
  6
CONTINUOUS
 10
-23,973986
 20
-12,663362
 11
-37,178986
 21
-12,663362
 39
0
 62
0
  0
LINE
  8
Segundo Plano
  6
CONTINUOUS
 10
-37,178986
 20
-12,663362
 11
-37,178986
 21
-11,263362
 39
0
 62
0
  0
TEXT
  8
Segundo Plano
  6
CONTINUOUS
 10
-30,576486
 20
-12,263362
 40
1,000000
 50
0,000000
 72
1
  7
0
  1
Mapa
 39
1
 62
0
  0
SOLID
 62
7
 10
-37,178986
 20
-15,263362
 11
-37,178986
 21
-12,663362
 12
-23,973986
 22
-15,263362
 13
-23,973986
 23
-12,663362
  0
LINE
  8
Segundo Plano
  6
CONTINUOUS
 10
-37,178986
 20
-12,663362
 11
-23,973986
 21
-12,663362
 39
0
 62
0
  0
LINE
  8
Segundo Plano
  6
CONTINUOUS
 10
-23,973986
 20
-12,663362
 11
-23,973986
 21
-15,263362
 39
0
 62
0
  0
LINE
  8
Segundo Plano
  6
CONTINUOUS
 10
-23,973986
 20
-15,263362
 11
-37,178986
 21
-15,263362
 39
0
 62
0
  0
LINE
  8
Segundo Plano
  6
CONTINUOUS
 10
-37,178986
 20
-15,263362
 11
-37,178986
 21
-12,663362
 39
0
 62
0
  0
TEXT
  8
Segundo Plano
  6
CONTINUOUS
 10
-37,028986
 20
-13,323362
 40
0,800000
 50
0,000000
 72
0
  7
0
  1
-itens: Item[][]
 39
1
 62
0
  0
TEXT
  8
Segundo Plano
  6
CONTINUOUS
 10
-37,028986
 20
-14,123362
 40
0,800000
 50
0,000000
 72
0
  7
0
  1
-largura: int
 39
1
 62
0
  0
TEXT
  8
Segundo Plano
  6
CONTINUOUS
 10
-37,028986
 20
-14,923362
 40
0,800000
 50
0,000000
 72
0
  7
0
  1
-altura: int
 39
1
 62
0
  0
SOLID
 62
7
 10
-37,178986
 20
-21,063362
 11
-37,178986
 21
-15,263362
 12
-23,973986
 22
-21,063362
 13
-23,973986
 23
-15,263362
  0
LINE
  8
Segundo Plano
  6
CONTINUOUS
 10
-37,178986
 20
-15,263362
 11
-23,973986
 21
-15,263362
 39
0
 62
0
  0
LINE
  8
Segundo Plano
  6
CONTINUOUS
 10
-23,973986
 20
-15,263362
 11
-23,973986
 21
-21,063362
 39
0
 62
0
  0
LINE
  8
Segundo Plano
  6
CONTINUOUS
 10
-23,973986
 20
-21,063362
 11
-37,178986
 21
-21,063362
 39
0
 62
0
  0
LINE
  8
Segundo Plano
  6
CONTINUOUS
 10
-37,178986
 20
-21,063362
 11
-37,178986
 21
-15,263362
 39
0
 62
0
  0
TEXT
  8
Segundo Plano
  6
CONTINUOUS
 10
-37,028986
 20
-15,923362
 40
0,800000
 50
0,000000
 72
0
  7
0
  1
+Mapa(largura,altura): construtor
 39
1
 62
0
  0
TEXT
  8
Segundo Plano
  6
CONTINUOUS
 10
-37,028986
 20
-16,723362
 40
0,800000
 50
0,000000
 72
0
  7
0
  1
+adicionarItem(Item): void
 39
1
 62
0
  0
TEXT
  8
Segundo Plano
  6
CONTINUOUS
 10
-37,028986
 20
-17,523362
 40
0,800000
 50
0,000000
 72
0
  7
0
  1
+removerItem(Item): void
 39
1
 62
0
  0
TEXT
  8
Segundo Plano
  6
CONTINUOUS
 10
-37,028986
 20
-18,323362
 40
0,800000
 50
0,000000
 72
0
  7
0
  1
+atualizarMapa(Item): void
 39
1
 62
0
  0
TEXT
  8
Segundo Plano
  6
CONTINUOUS
 10
-37,028986
 20
-19,123362
 40
0,800000
 50
0,000000
 72
0
  7
0
  1
+getItem(): Item
 39
1
 62
0
  0
TEXT
  8
Segundo Plano
  6
CONTINUOUS
 10
-37,028986
 20
-19,923362
 40
0,800000
 50
0,000000
 72
0
  7
0
  1
+getLargura(): int
 39
1
 62
0
  0
TEXT
  8
Segundo Plano
  6
CONTINUOUS
 10
-37,028986
 20
-20,723362
 40
0,800000
 50
0,000000
 72
0
  7
0
  1
+getAltura(): int
 39
1
 62
0
  0
SOLID
 62
7
 10
-9,821060
 20
-13,863838
 11
-9,821060
 21
-12,463838
 12
4,153940
 22
-13,863838
 13
4,153940
 23
-12,463838
  0
LINE
  8
Segundo Plano
  6
CONTINUOUS
 10
-9,821060
 20
-12,463838
 11
4,153940
 21
-12,463838
 39
0
 62
0
  0
LINE
  8
Segundo Plano
  6
CONTINUOUS
 10
4,153940
 20
-12,463838
 11
4,153940
 21
-13,863838
 39
0
 62
0
  0
LINE
  8
Segundo Plano
  6
CONTINUOUS
 10
4,153940
 20
-13,863838
 11
-9,821060
 21
-13,863838
 39
0
 62
0
  0
LINE
  8
Segundo Plano
  6
CONTINUOUS
 10
-9,821060
 20
-13,863838
 11
-9,821060
 21
-12,463838
 39
0
 62
0
  0
TEXT
  8
Segundo Plano
  6
CONTINUOUS
 10
-2,833560
 20
-13,463838
 40
1,000000
 50
0,000000
 72
1
  7
0
  1
Item
 39
1
 62
0
  0
SOLID
 62
7
 10
-9,821060
 20
-15,663838
 11
-9,821060
 21
-13,863838
 12
4,153940
 22
-15,663838
 13
4,153940
 23
-13,863838
  0
LINE
  8
Segundo Plano
  6
CONTINUOUS
 10
-9,821060
 20
-13,863838
 11
4,153940
 21
-13,863838
 39
0
 62
0
  0
LINE
  8
Segundo Plano
  6
CONTINUOUS
 10
4,153940
 20
-13,863838
 11
4,153940
 21
-15,663838
 39
0
 62
0
  0
LINE
  8
Segundo Plano
  6
CONTINUOUS
 10
4,153940
 20
-15,663838
 11
-9,821060
 21
-15,663838
 39
0
 62
0
  0
LINE
  8
Segundo Plano
  6
CONTINUOUS
 10
-9,821060
 20
-15,663838
 11
-9,821060
 21
-13,863838
 39
0
 62
0
  0
TEXT
  8
Segundo Plano
  6
CONTINUOUS
 10
-9,671060
 20
-14,523838
 40
0,800000
 50
0,000000
 72
0
  7
0
  1
-LocalizacaoAtual: Localizacao
 39
1
 62
0
  0
TEXT
  8
Segundo Plano
  6
CONTINUOUS
 10
-9,671060
 20
-15,323838
 40
0,800000
 50
0,000000
 72
0
  7
0
  1
-imagem: Image
 39
1
 62
0
  0
SOLID
 62
7
 10
-9,821060
 20
-19,863838
 11
-9,821060
 21
-15,663838
 12
4,153940
 22
-19,863838
 13
4,153940
 23
-15,663838
  0
LINE
  8
Segundo Plano
  6
CONTINUOUS
 10
-9,821060
 20
-15,663838
 11
4,153940
 21
-15,663838
 39
0
 62
0
  0
LINE
  8
Segundo Plano
  6
CONTINUOUS
 10
4,153940
 20
-15,663838
 11
4,153940
 21
-19,863838
 39
0
 62
0
  0
LINE
  8
Segundo Plano
  6
CONTINUOUS
 10
4,153940
 20
-19,863838
 11
-9,821060
 21
-19,863838
 39
0
 62
0
  0
LINE
  8
Segundo Plano
  6
CONTINUOUS
 10
-9,821060
 20
-19,863838
 11
-9,821060
 21
-15,663838
 39
0
 62
0
  0
TEXT
  8
Segundo Plano
  6
CONTINUOUS
 10
-9,671060
 20
-16,323838
 40
0,800000
 50
0,000000
 72
0
  7
0
  1
+Item(Localizacao): construtor
 39
1
 62
0
  0
TEXT
  8
Segundo Plano
  6
CONTINUOUS
 10
-9,671060
 20
-17,123838
 40
0,800000
 50
0,000000
 72
0
  7
0
  1
+setImagem(Image): void
 39
1
 62
0
  0
TEXT
  8
Segundo Plano
  6
CONTINUOUS
 10
-9,671060
 20
-17,923838
 40
0,800000
 50
0,000000
 72
0
  7
0
  1
+getImagem(): Image
 39
1
 62
0
  0
TEXT
  8
Segundo Plano
  6
CONTINUOUS
 10
-9,671060
 20
-18,723838
 40
0,800000
 50
0,000000
 72
0
  7
0
  1
+setLocalizacaoAtual(): void
 39
1
 62
0
  0
TEXT
  8
Segundo Plano
  6
CONTINUOUS
 10
-9,671060
 20
-19,523838
 40
0,800000
 50
0,000000
 72
0
  7
0
  1
+getLocalizacaoAtual(): Localizacao
 39
1
 62
0
  0
SOLID
 62
7
 10
17,059911
 20
-13,474822
 11
17,059911
 21
-12,074822
 12
41,429911
 22
-13,474822
 13
41,429911
 23
-12,074822
  0
LINE
  8
Segundo Plano
  6
CONTINUOUS
 10
17,059911
 20
-12,074822
 11
41,429911
 21
-12,074822
 39
0
 62
0
  0
LINE
  8
Segundo Plano
  6
CONTINUOUS
 10
41,429911
 20
-12,074822
 11
41,429911
 21
-13,474822
 39
0
 62
0
  0
LINE
  8
Segundo Plano
  6
CONTINUOUS
 10
41,429911
 20
-13,474822
 11
17,059911
 21
-13,474822
 39
0
 62
0
  0
LINE
  8
Segundo Plano
  6
CONTINUOUS
 10
17,059911
 20
-13,474822
 11
17,059911
 21
-12,074822
 39
0
 62
0
  0
TEXT
  8
Segundo Plano
  6
CONTINUOUS
 10
29,244911
 20
-13,074822
 40
1,000000
 50
0,000000
 72
1
  7
0
  1
ItemDinamico
 39
1
 62
0
  0
SOLID
 62
7
 10
17,059911
 20
-14,474822
 11
17,059911
 21
-13,474822
 12
41,429911
 22
-14,474822
 13
41,429911
 23
-13,474822
  0
LINE
  8
Segundo Plano
  6
CONTINUOUS
 10
17,059911
 20
-13,474822
 11
41,429911
 21
-13,474822
 39
0
 62
0
  0
LINE
  8
Segundo Plano
  6
CONTINUOUS
 10
41,429911
 20
-13,474822
 11
41,429911
 21
-14,474822
 39
0
 62
0
  0
LINE
  8
Segundo Plano
  6
CONTINUOUS
 10
41,429911
 20
-14,474822
 11
17,059911
 21
-14,474822
 39
0
 62
0
  0
LINE
  8
Segundo Plano
  6
CONTINUOUS
 10
17,059911
 20
-14,474822
 11
17,059911
 21
-13,474822
 39
0
 62
0
  0
TEXT
  8
Segundo Plano
  6
CONTINUOUS
 10
17,209911
 20
-14,134822
 40
0,800000
 50
0,000000
 72
0
  7
0
  1
-localizacaoDestino: Localizacao
 39
1
 62
0
  0
SOLID
 62
7
 10
17,059911
 20
-20,274822
 11
17,059911
 21
-14,474822
 12
41,429911
 22
-20,274822
 13
41,429911
 23
-14,474822
  0
LINE
  8
Segundo Plano
  6
CONTINUOUS
 10
17,059911
 20
-14,474822
 11
41,429911
 21
-14,474822
 39
0
 62
0
  0
LINE
  8
Segundo Plano
  6
CONTINUOUS
 10
41,429911
 20
-14,474822
 11
41,429911
 21
-20,274822
 39
0
 62
0
  0
LINE
  8
Segundo Plano
  6
CONTINUOUS
 10
41,429911
 20
-20,274822
 11
17,059911
 21
-20,274822
 39
0
 62
0
  0
LINE
  8
Segundo Plano
  6
CONTINUOUS
 10
17,059911
 20
-20,274822
 11
17,059911
 21
-14,474822
 39
0
 62
0
  0
TEXT
  8
Segundo Plano
  6
CONTINUOUS
 10
17,209911
 20
-15,134822
 40
0,800000
 50
0,000000
 72
0
  7
0
  1
+ItemDinamico(localizacaoAtual,localizacaoDestino): Construtor
 39
1
 62
0
  0
TEXT
  8
Segundo Plano
  6
CONTINUOUS
 10
17,209911
 20
-15,934822
 40
0,800000
 50
0,000000
 72
0
  7
0
  1
+getLocalizacaoDestino(): Localizacao
 39
1
 62
0
  0
TEXT
  8
Segundo Plano
  6
CONTINUOUS
 10
17,209911
 20
-16,734822
 40
0,800000
 50
0,000000
 72
0
  7
0
  1
+setLocalizacaoDestino(Localizacao): void
 39
1
 62
0
  0
TEXT
  8
Segundo Plano
  6
CONTINUOUS
 10
17,209911
 20
-17,534822
 40
0,800000
 50
0,000000
 72
0
  7
0
  1
+executarAcao(tempoSimulacao): void
 39
1
 62
0
  0
TEXT
  8
Segundo Plano
  6
CONTINUOUS
 10
17,209911
 20
-18,334822
 40
0,800000
 50
0,000000
 72
0
  7
0
  1
+chegouDestino(): boolean
 39
1
 62
0
  0
TEXT
  8
Segundo Plano
  6
CONTINUOUS
 10
17,209911
 20
-19,134822
 40
0,800000
 50
0,000000
 72
0
  7
0
  1
+estaPosicionado(Localizacao): boolean
 39
1
 62
0
  0
TEXT
  8
Segundo Plano
  6
CONTINUOUS
 10
17,209911
 20
-19,934822
 40
0,800000
 50
0,000000
 72
0
  7
0
  1
+trocaDestino(Localizacao, Localizacao): void
 39
1
 62
0
  0
SOLID
 62
7
 10
1,864782
 20
-27,086606
 11
1,864782
 21
-25,686606
 12
22,384782
 22
-27,086606
 13
22,384782
 23
-25,686606
  0
LINE
  8
Segundo Plano
  6
CONTINUOUS
 10
1,864782
 20
-25,686606
 11
22,384782
 21
-25,686606
 39
0
 62
0
  0
LINE
  8
Segundo Plano
  6
CONTINUOUS
 10
22,384782
 20
-25,686606
 11
22,384782
 21
-27,086606
 39
0
 62
0
  0
LINE
  8
Segundo Plano
  6
CONTINUOUS
 10
22,384782
 20
-27,086606
 11
1,864782
 21
-27,086606
 39
0
 62
0
  0
LINE
  8
Segundo Plano
  6
CONTINUOUS
 10
1,864782
 20
-27,086606
 11
1,864782
 21
-25,686606
 39
0
 62
0
  0
TEXT
  8
Segundo Plano
  6
CONTINUOUS
 10
12,124782
 20
-26,686606
 40
1,000000
 50
0,000000
 72
1
  7
0
  1
Localizacao
 39
1
 62
0
  0
SOLID
 62
7
 10
1,864782
 20
-29,686606
 11
1,864782
 21
-27,086606
 12
22,384782
 22
-29,686606
 13
22,384782
 23
-27,086606
  0
LINE
  8
Segundo Plano
  6
CONTINUOUS
 10
1,864782
 20
-27,086606
 11
22,384782
 21
-27,086606
 39
0
 62
0
  0
LINE
  8
Segundo Plano
  6
CONTINUOUS
 10
22,384782
 20
-27,086606
 11
22,384782
 21
-29,686606
 39
0
 62
0
  0
LINE
  8
Segundo Plano
  6
CONTINUOUS
 10
22,384782
 20
-29,686606
 11
1,864782
 21
-29,686606
 39
0
 62
0
  0
LINE
  8
Segundo Plano
  6
CONTINUOUS
 10
1,864782
 20
-29,686606
 11
1,864782
 21
-27,086606
 39
0
 62
0
  0
TEXT
  8
Segundo Plano
  6
CONTINUOUS
 10
2,014782
 20
-27,746606
 40
0,800000
 50
0,000000
 72
0
  7
0
  1
-x: int
 39
1
 62
0
  0
TEXT
  8
Segundo Plano
  6
CONTINUOUS
 10
2,014782
 20
-28,546606
 40
0,800000
 50
0,000000
 72
0
  7
0
  1
-y: int
 39
1
 62
0
  0
TEXT
  8
Segundo Plano
  6
CONTINUOUS
 10
2,014782
 20
-29,346606
 40
0,800000
 50
0,000000
 72
0
  7
0
  1
-rand: Random
 39
1
 62
0
  0
SOLID
 62
7
 10
1,864782
 20
-36,286606
 11
1,864782
 21
-29,686606
 12
22,384782
 22
-36,286606
 13
22,384782
 23
-29,686606
  0
LINE
  8
Segundo Plano
  6
CONTINUOUS
 10
1,864782
 20
-29,686606
 11
22,384782
 21
-29,686606
 39
0
 62
0
  0
LINE
  8
Segundo Plano
  6
CONTINUOUS
 10
22,384782
 20
-29,686606
 11
22,384782
 21
-36,286606
 39
0
 62
0
  0
LINE
  8
Segundo Plano
  6
CONTINUOUS
 10
22,384782
 20
-36,286606
 11
1,864782
 21
-36,286606
 39
0
 62
0
  0
LINE
  8
Segundo Plano
  6
CONTINUOUS
 10
1,864782
 20
-36,286606
 11
1,864782
 21
-29,686606
 39
0
 62
0
  0
TEXT
  8
Segundo Plano
  6
CONTINUOUS
 10
2,014782
 20
-30,346606
 40
0,800000
 50
0,000000
 72
0
  7
0
  1
+Localizacao(x,y): construtor
 39
1
 62
0
  0
TEXT
  8
Segundo Plano
  6
CONTINUOUS
 10
2,014782
 20
-31,146606
 40
0,800000
 50
0,000000
 72
0
  7
0
  1
+getX(): int
 39
1
 62
0
  0
TEXT
  8
Segundo Plano
  6
CONTINUOUS
 10
2,014782
 20
-31,946606
 40
0,800000
 50
0,000000
 72
0
  7
0
  1
+getY(): int
 39
1
 62
0
  0
TEXT
  8
Segundo Plano
  6
CONTINUOUS
 10
2,014782
 20
-32,746606
 40
0,800000
 50
0,000000
 72
0
  7
0
  1
+setX(x): void
 39
1
 62
0
  0
TEXT
  8
Segundo Plano
  6
CONTINUOUS
 10
2,014782
 20
-33,546606
 40
0,800000
 50
0,000000
 72
0
  7
0
  1
+setY(y): void
 39
1
 62
0
  0
TEXT
  8
Segundo Plano
  6
CONTINUOUS
 10
2,014782
 20
-34,346606
 40
0,800000
 50
0,000000
 72
0
  7
0
  1
+proximaLocalizacao(localizacaoDestino): Localizacao
 39
1
 62
0
  0
TEXT
  8
Segundo Plano
  6
CONTINUOUS
 10
2,014782
 20
-35,146606
 40
0,800000
 50
0,000000
 72
0
  7
0
  1
 equals(Object): boolean
 39
1
 62
0
  0
TEXT
  8
Segundo Plano
  6
CONTINUOUS
 10
2,014782
 20
-35,946606
 40
0,800000
 50
0,000000
 72
0
  7
0
  1
 toString(): String
 39
1
 62
0
  0
SOLID
 62
7
 10
52,503920
 20
7,152286
 11
52,503920
 21
9,352286
 12
72,253920
 22
7,152286
 13
72,253920
 23
9,352286
  0
LINE
  8
Segundo Plano
  6
CONTINUOUS
 10
52,503920
 20
9,352286
 11
72,253920
 21
9,352286
 39
0
 62
0
  0
LINE
  8
Segundo Plano
  6
CONTINUOUS
 10
72,253920
 20
9,352286
 11
72,253920
 21
7,152286
 39
0
 62
0
  0
LINE
  8
Segundo Plano
  6
CONTINUOUS
 10
72,253920
 20
7,152286
 11
52,503920
 21
7,152286
 39
0
 62
0
  0
LINE
  8
Segundo Plano
  6
CONTINUOUS
 10
52,503920
 20
7,152286
 11
52,503920
 21
9,352286
 39
0
 62
0
  0
TEXT
  8
Segundo Plano
  6
CONTINUOUS
 10
62,378920
 20
8,592286
 40
0,800000
 50
0,000000
 72
1
  7
0
  1
<<Interface>>
 39
1
 62
0
  0
TEXT
  8
Segundo Plano
  6
CONTINUOUS
 10
62,378920
 20
7,552286
 40
1,000000
 50
0,000000
 72
1
  7
0
  1
MovimentacaoPercuso
 39
1
 62
0
  0
SOLID
 62
7
 10
52,503920
 20
6,152286
 11
52,503920
 21
7,152286
 12
72,253920
 22
6,152286
 13
72,253920
 23
7,152286
  0
LINE
  8
Segundo Plano
  6
CONTINUOUS
 10
52,503920
 20
7,152286
 11
72,253920
 21
7,152286
 39
0
 62
0
  0
LINE
  8
Segundo Plano
  6
CONTINUOUS
 10
72,253920
 20
7,152286
 11
72,253920
 21
6,152286
 39
0
 62
0
  0
LINE
  8
Segundo Plano
  6
CONTINUOUS
 10
72,253920
 20
6,152286
 11
52,503920
 21
6,152286
 39
0
 62
0
  0
LINE
  8
Segundo Plano
  6
CONTINUOUS
 10
52,503920
 20
6,152286
 11
52,503920
 21
7,152286
 39
0
 62
0
  0
TEXT
  8
Segundo Plano
  6
CONTINUOUS
 10
52,653920
 20
6,492286
 40
0,800000
 50
0,000000
 72
0
  7
0
  1
+realizarPercurso(Localizacao1,Localizacao2): void
 39
1
 62
0
  0
SOLID
 62
7
 10
52,430925
 20
0,158559
 11
52,430925
 21
1,558559
 12
72,180925
 22
0,158559
 13
72,180925
 23
1,558559
  0
LINE
  8
Segundo Plano
  6
CONTINUOUS
 10
52,430925
 20
1,558559
 11
72,180925
 21
1,558559
 39
0
 62
0
  0
LINE
  8
Segundo Plano
  6
CONTINUOUS
 10
72,180925
 20
1,558559
 11
72,180925
 21
0,158559
 39
0
 62
0
  0
LINE
  8
Segundo Plano
  6
CONTINUOUS
 10
72,180925
 20
0,158559
 11
52,430925
 21
0,158559
 39
0
 62
0
  0
LINE
  8
Segundo Plano
  6
CONTINUOUS
 10
52,430925
 20
0,158559
 11
52,430925
 21
1,558559
 39
0
 62
0
  0
TEXT
  8
Segundo Plano
  6
CONTINUOUS
 10
62,305925
 20
0,558559
 40
1,000000
 50
0,000000
 72
1
  7
0
  1
Cachorro
 39
1
 62
0
  0
SOLID
 62
7
 10
52,430925
 20
-1,641441
 11
52,430925
 21
0,158559
 12
72,180925
 22
-1,641441
 13
72,180925
 23
0,158559
  0
LINE
  8
Segundo Plano
  6
CONTINUOUS
 10
52,430925
 20
0,158559
 11
72,180925
 21
0,158559
 39
0
 62
0
  0
LINE
  8
Segundo Plano
  6
CONTINUOUS
 10
72,180925
 20
0,158559
 11
72,180925
 21
-1,641441
 39
0
 62
0
  0
LINE
  8
Segundo Plano
  6
CONTINUOUS
 10
72,180925
 20
-1,641441
 11
52,430925
 21
-1,641441
 39
0
 62
0
  0
LINE
  8
Segundo Plano
  6
CONTINUOUS
 10
52,430925
 20
-1,641441
 11
52,430925
 21
0,158559
 39
0
 62
0
  0
TEXT
  8
Segundo Plano
  6
CONTINUOUS
 10
52,580925
 20
-0,501441
 40
0,800000
 50
0,000000
 72
0
  7
0
  1
+Cachorro(localizacao1,Localizacao2): construtor
 39
1
 62
0
  0
TEXT
  8
Segundo Plano
  6
CONTINUOUS
 10
52,580925
 20
-1,301441
 40
0,800000
 50
0,000000
 72
0
  7
0
  1
 realizarPercurso(Localizacao1,Localizacao2): void
 39
1
 62
0
  0
SOLID
 62
7
 10
-1,557573
 20
-8,316459
 11
-1,557573
 21
-6,916459
 12
15,112427
 22
-8,316459
 13
15,112427
 23
-6,916459
  0
LINE
  8
Segundo Plano
  6
CONTINUOUS
 10
-1,557573
 20
-6,916459
 11
15,112427
 21
-6,916459
 39
0
 62
0
  0
LINE
  8
Segundo Plano
  6
CONTINUOUS
 10
15,112427
 20
-6,916459
 11
15,112427
 21
-8,316459
 39
0
 62
0
  0
LINE
  8
Segundo Plano
  6
CONTINUOUS
 10
15,112427
 20
-8,316459
 11
-1,557573
 21
-8,316459
 39
0
 62
0
  0
LINE
  8
Segundo Plano
  6
CONTINUOUS
 10
-1,557573
 20
-8,316459
 11
-1,557573
 21
-6,916459
 39
0
 62
0
  0
TEXT
  8
Segundo Plano
  6
CONTINUOUS
 10
6,777427
 20
-7,916459
 40
1,000000
 50
0,000000
 72
1
  7
0
  1
Decoracao
 39
1
 62
0
  0
SOLID
 62
7
 10
-1,557573
 20
-9,316459
 11
-1,557573
 21
-8,316459
 12
15,112427
 22
-9,316459
 13
15,112427
 23
-8,316459
  0
LINE
  8
Segundo Plano
  6
CONTINUOUS
 10
-1,557573
 20
-8,316459
 11
15,112427
 21
-8,316459
 39
0
 62
0
  0
LINE
  8
Segundo Plano
  6
CONTINUOUS
 10
15,112427
 20
-8,316459
 11
15,112427
 21
-9,316459
 39
0
 62
0
  0
LINE
  8
Segundo Plano
  6
CONTINUOUS
 10
15,112427
 20
-9,316459
 11
-1,557573
 21
-9,316459
 39
0
 62
0
  0
LINE
  8
Segundo Plano
  6
CONTINUOUS
 10
-1,557573
 20
-9,316459
 11
-1,557573
 21
-8,316459
 39
0
 62
0
  0
TEXT
  8
Segundo Plano
  6
CONTINUOUS
 10
-1,407573
 20
-8,976459
 40
0,800000
 50
0,000000
 72
0
  7
0
  1
+Decoracao(Localizacao,Imagem): Construtor
 39
1
 62
0
  0
POLYLINE
  6
CONTINUOUS
  8
Segundo Plano
 41
0,100000
 41
0,100000
 62
0
 66
1
  0
VERTEX
 10
-30,555786
 20
7,277119
  0
VERTEX
 10
-30,555786
 20
6,112804
  0
VERTEX
 10
-30,545108
 20
6,112804
  0
VERTEX
 10
-30,545108
 20
4,948489
  0
SEQEND
  0
POLYLINE
  6
CONTINUOUS
  8
Segundo Plano
 41
0,100000
 41
0,100000
 62
0
 66
1
  0
VERTEX
 10
-38,946415
 20
-16,163696
  0
VERTEX
 10
-38,367193
 20
-16,163696
  0
VERTEX
 10
-38,367193
 20
-16,163362
  0
VERTEX
 10
-37,229392
 20
-16,163362
  0
SEQEND
  0
LINE
  8
Segundo Plano
  6
CONTINUOUS
 10
-40,204994
 20
-16,163696
 11
-39,504994
 21
-15,923696
 39
0
 62
0
  0
LINE
  8
Segundo Plano
  6
CONTINUOUS
 10
-39,504994
 20
-15,923696
 11
-38,804994
 21
-16,163696
 39
0
 62
0
  0
LINE
  8
Segundo Plano
  6
CONTINUOUS
 10
-38,804994
 20
-16,163696
 11
-39,504994
 21
-16,403696
 39
0
 62
0
  0
LINE
  8
Segundo Plano
  6
CONTINUOUS
 10
-39,504994
 20
-16,403696
 11
-40,204994
 21
-16,163696
 39
0
 62
0
  0
POLYLINE
  6
CONTINUOUS
  8
Segundo Plano
 41
0,100000
 41
0,100000
 62
0
 66
1
  0
VERTEX
 10
-30,576486
 20
-11,213060
  0
VERTEX
 10
-30,576486
 20
-9,332686
  0
VERTEX
 10
-30,545108
 20
-9,332686
  0
VERTEX
 10
-30,545108
 20
-9,410890
  0
SEQEND
  0
LINE
  8
Segundo Plano
  6
CONTINUOUS
 10
-30,545108
 20
-8,152311
 11
-30,305108
 21
-8,852311
 39
0
 62
0
  0
LINE
  8
Segundo Plano
  6
CONTINUOUS
 10
-30,305108
 20
-8,852311
 11
-30,545108
 21
-9,552311
 39
0
 62
0
  0
LINE
  8
Segundo Plano
  6
CONTINUOUS
 10
-30,545108
 20
-9,552311
 11
-30,785108
 21
-8,852311
 39
0
 62
0
  0
LINE
  8
Segundo Plano
  6
CONTINUOUS
 10
-30,785108
 20
-8,852311
 11
-30,545108
 21
-8,152311
 39
0
 62
0
  0
POLYLINE
  6
CONTINUOUS
  8
Segundo Plano
 41
0,100000
 41
0,100000
 62
0
 66
1
  0
VERTEX
 10
-47,050412
 20
-13,613385
  0
VERTEX
 10
-47,050412
 20
-10,532848
  0
VERTEX
 10
-30,545108
 20
-10,532848
  0
VERTEX
 10
-30,545108
 20
-9,410890
  0
SEQEND
  0
LINE
  8
Segundo Plano
  6
CONTINUOUS
 10
-30,545108
 20
-8,152311
 11
-30,305108
 21
-8,852311
 39
0
 62
0
  0
LINE
  8
Segundo Plano
  6
CONTINUOUS
 10
-30,305108
 20
-8,852311
 11
-30,545108
 21
-9,552311
 39
0
 62
0
  0
LINE
  8
Segundo Plano
  6
CONTINUOUS
 10
-30,545108
 20
-9,552311
 11
-30,785108
 21
-8,852311
 39
0
 62
0
  0
LINE
  8
Segundo Plano
  6
CONTINUOUS
 10
-30,785108
 20
-8,852311
 11
-30,545108
 21
-8,152311
 39
0
 62
0
  0
POLYLINE
  6
CONTINUOUS
  8
Segundo Plano
 41
0,100000
 41
0,100000
 62
0
 66
1
  0
VERTEX
 10
-22,665001
 20
-16,163362
  0
VERTEX
 10
-16,547535
 20
-16,163362
  0
VERTEX
 10
-16,547535
 20
-16,163838
  0
VERTEX
 10
-9,871490
 20
-16,163838
  0
SEQEND
  0
LINE
  8
Segundo Plano
  6
CONTINUOUS
 10
-23,923580
 20
-16,163362
 11
-23,223580
 21
-15,923362
 39
0
 62
0
  0
LINE
  8
Segundo Plano
  6
CONTINUOUS
 10
-23,223580
 20
-15,923362
 11
-22,523580
 21
-16,163362
 39
0
 62
0
  0
LINE
  8
Segundo Plano
  6
CONTINUOUS
 10
-22,523580
 20
-16,163362
 11
-23,223580
 21
-16,403362
 39
0
 62
0
  0
LINE
  8
Segundo Plano
  6
CONTINUOUS
 10
-23,223580
 20
-16,403362
 11
-23,923580
 21
-16,163362
 39
0
 62
0
  0
POLYLINE
  6
CONTINUOUS
  8
Segundo Plano
 41
0,100000
 41
0,100000
 62
0
 66
1
  0
VERTEX
 10
-2,833560
 20
-11,501577
  0
VERTEX
 10
-2,833560
 20
-10,504987
  0
VERTEX
 10
-11,153417
 20
-10,504987
  0
VERTEX
 10
-11,153417
 20
-9,396593
  0
SEQEND
  0
LINE
  8
Segundo Plano
  6
CONTINUOUS
 10
-3,233560
 20
-11,501577
 11
-2,833560
 21
-12,301577
 39
0
 62
0
  0
LINE
  8
Segundo Plano
  6
CONTINUOUS
 10
-2,833560
 20
-12,301577
 11
-2,433560
 21
-11,501577
 39
0
 62
0
  0
LINE
  8
Segundo Plano
  6
CONTINUOUS
 10
-2,433560
 20
-11,501577
 11
-3,233560
 21
-11,501577
 39
0
 62
0
  0
POLYLINE
  6
CONTINUOUS
  8
Segundo Plano
 41
0,100000
 41
0,100000
 62
0
 66
1
  0
VERTEX
 10
-2,833560
 20
-11,518500
  0
VERTEX
 10
-2,833560
 20
-10,506995
  0
VERTEX
 10
6,777427
 20
-10,506995
  0
VERTEX
 10
6,777427
 20
-9,383687
  0
SEQEND
  0
LINE
  8
Segundo Plano
  6
CONTINUOUS
 10
-3,233560
 20
-11,518500
 11
-2,833560
 21
-12,318500
 39
0
 62
0
  0
LINE
  8
Segundo Plano
  6
CONTINUOUS
 10
-2,833560
 20
-12,318500
 11
-2,433560
 21
-11,518500
 39
0
 62
0
  0
LINE
  8
Segundo Plano
  6
CONTINUOUS
 10
-2,433560
 20
-11,518500
 11
-3,233560
 21
-11,518500
 39
0
 62
0
  0
POLYLINE
  6
CONTINUOUS
  8
Segundo Plano
 41
0,100000
 41
0,100000
 62
0
 66
1
  0
VERTEX
 10
5,116173
 20
-16,163838
  0
VERTEX
 10
11,006953
 20
-16,163838
  0
VERTEX
 10
11,006953
 20
-16,174822
  0
VERTEX
 10
17,009538
 20
-16,174822
  0
SEQEND
  0
LINE
  8
Segundo Plano
  6
CONTINUOUS
 10
5,116173
 20
-15,763838
 11
4,316173
 21
-16,163838
 39
0
 62
0
  0
LINE
  8
Segundo Plano
  6
CONTINUOUS
 10
4,316173
 20
-16,163838
 11
5,116173
 21
-16,563838
 39
0
 62
0
  0
LINE
  8
Segundo Plano
  6
CONTINUOUS
 10
5,116173
 20
-16,563838
 11
5,116173
 21
-15,763838
 39
0
 62
0
  0
POLYLINE
  6
CONTINUOUS
  8
Segundo Plano
 41
0,100000
 41
0,100000
 62
0
 66
1
  0
VERTEX
 10
29,244911
 20
-11,114037
  0
VERTEX
 10
29,244911
 20
-6,216292
  0
VERTEX
 10
12,278470
 20
-6,216292
  0
VERTEX
 10
12,278470
 20
0,879649
  0
SEQEND
  0
LINE
  8
Segundo Plano
  6
CONTINUOUS
 10
28,844911
 20
-11,114037
 11
29,244911
 21
-11,914037
 39
0
 62
0
  0
LINE
  8
Segundo Plano
  6
CONTINUOUS
 10
29,244911
 20
-11,914037
 11
29,644911
 21
-11,114037
 39
0
 62
0
  0
LINE
  8
Segundo Plano
  6
CONTINUOUS
 10
29,644911
 20
-11,114037
 11
28,844911
 21
-11,114037
 39
0
 62
0
  0
POLYLINE
  6
CONTINUOUS
  8
Segundo Plano
 41
0,100000
 41
0,100000
 62
0
 66
1
  0
VERTEX
 10
29,244911
 20
-11,114037
  0
VERTEX
 10
29,244911
 20
-6,216292
  0
VERTEX
 10
39,274366
 20
-6,216292
  0
VERTEX
 10
39,274366
 20
-1,476435
  0
SEQEND
  0
LINE
  8
Segundo Plano
  6
CONTINUOUS
 10
28,844911
 20
-11,114037
 11
29,244911
 21
-11,914037
 39
0
 62
0
  0
LINE
  8
Segundo Plano
  6
CONTINUOUS
 10
29,244911
 20
-11,914037
 11
29,644911
 21
-11,114037
 39
0
 62
0
  0
LINE
  8
Segundo Plano
  6
CONTINUOUS
 10
29,644911
 20
-11,114037
 11
28,844911
 21
-11,114037
 39
0
 62
0
  0
POLYLINE
  6
CONTINUOUS
  8
Segundo Plano
 41
0,100000
 41
0,100000
 62
0
 66
1
  0
VERTEX
 10
29,244911
 20
-11,115218
  0
VERTEX
 10
29,244911
 20
-6,233691
  0
VERTEX
 10
62,305925
 20
-6,233691
  0
VERTEX
 10
62,305925
 20
-1,689281
  0
SEQEND
  0
LINE
  8
Segundo Plano
  6
CONTINUOUS
 10
28,844911
 20
-11,115218
 11
29,244911
 21
-11,915218
 39
0
 62
0
  0
LINE
  8
Segundo Plano
  6
CONTINUOUS
 10
29,244911
 20
-11,915218
 11
29,644911
 21
-11,115218
 39
0
 62
0
  0
LINE
  8
Segundo Plano
  6
CONTINUOUS
 10
29,644911
 20
-11,115218
 11
28,844911
 21
-11,115218
 39
0
 62
0
  0
POLYLINE
  6
CONTINUOUS
  8
Segundo Plano
 41
0,100000
 41
0,100000
 62
0
 66
1
  0
VERTEX
 10
-2,522338
 20
-0,846169
  0
VERTEX
 10
-2,071224
 20
-0,846169
  0
VERTEX
 10
-2,071224
 20
3,027465
  0
VERTEX
 10
-1,061530
 20
3,027465
  0
SEQEND
  0
LINE
  8
Segundo Plano
  6
CONTINUOUS
 10
-3,780917
 20
-0,846169
 11
-3,080917
 21
-0,606169
 39
0
 62
0
  0
LINE
  8
Segundo Plano
  6
CONTINUOUS
 10
-3,080917
 20
-0,606169
 11
-2,380917
 21
-0,846169
 39
0
 62
0
  0
LINE
  8
Segundo Plano
  6
CONTINUOUS
 10
-2,380917
 20
-0,846169
 11
-3,080917
 21
-1,086169
 39
0
 62
0
  0
LINE
  8
Segundo Plano
  6
CONTINUOUS
 10
-3,080917
 20
-1,086169
 11
-3,780917
 21
-0,846169
 39
0
 62
0
  0
POLYLINE
  6
CONTINUOUS
  8
Segundo Plano
 41
0,100000
 41
0,100000
 62
0
 66
1
  0
VERTEX
 10
26,935449
 20
4,273757
  0
VERTEX
 10
26,581453
 20
4,273757
  0
VERTEX
 10
26,581453
 20
4,227465
  0
VERTEX
 10
25,668878
 20
4,227465
  0
SEQEND
  0
LINE
  8
Segundo Plano
  6
CONTINUOUS
 10
28,194028
 20
4,273757
 11
27,494028
 21
4,033757
 39
0
 62
0
  0
LINE
  8
Segundo Plano
  6
CONTINUOUS
 10
27,494028
 20
4,033757
 11
26,794028
 21
4,273757
 39
0
 62
0
  0
LINE
  8
Segundo Plano
  6
CONTINUOUS
 10
26,794028
 20
4,273757
 11
27,494028
 21
4,513757
 39
0
 62
0
  0
LINE
  8
Segundo Plano
  6
CONTINUOUS
 10
27,494028
 20
4,513757
 11
28,194028
 21
4,273757
 39
0
 62
0
  0
POLYLINE
  6
CONTINUOUS
  8
Segundo Plano
 41
0,100000
 41
0,100000
 62
0
 66
1
  0
VERTEX
 10
12,124782
 20
-24,377701
  0
VERTEX
 10
12,124782
 20
-22,425288
  0
VERTEX
 10
-2,833560
 20
-22,425288
  0
VERTEX
 10
-2,833560
 20
-19,914296
  0
SEQEND
  0
LINE
  8
Segundo Plano
  6
CONTINUOUS
 10
12,124782
 20
-25,636280
 11
11,884782
 21
-24,936280
 39
0
 62
0
  0
LINE
  8
Segundo Plano
  6
CONTINUOUS
 10
11,884782
 20
-24,936280
 11
12,124782
 21
-24,236280
 39
0
 62
0
  0
LINE
  8
Segundo Plano
  6
CONTINUOUS
 10
12,124782
 20
-24,236280
 11
12,364782
 21
-24,936280
 39
0
 62
0
  0
LINE
  8
Segundo Plano
  6
CONTINUOUS
 10
12,364782
 20
-24,936280
 11
12,124782
 21
-25,636280
 39
0
 62
0
  0
POLYLINE
  6
CONTINUOUS
  8
Segundo Plano
 41
0,100000
 41
0,100000
 62
0
 66
1
  0
VERTEX
 10
12,124782
 20
-24,378315
  0
VERTEX
 10
12,124782
 20
-22,388441
  0
VERTEX
 10
29,244911
 20
-22,388441
  0
VERTEX
 10
29,244911
 20
-20,313190
  0
SEQEND
  0
LINE
  8
Segundo Plano
  6
CONTINUOUS
 10
12,124782
 20
-25,636893
 11
11,884782
 21
-24,936893
 39
0
 62
0
  0
LINE
  8
Segundo Plano
  6
CONTINUOUS
 10
11,884782
 20
-24,936893
 11
12,124782
 21
-24,236893
 39
0
 62
0
  0
LINE
  8
Segundo Plano
  6
CONTINUOUS
 10
12,124782
 20
-24,236893
 11
12,364782
 21
-24,936893
 39
0
 62
0
  0
LINE
  8
Segundo Plano
  6
CONTINUOUS
 10
12,364782
 20
-24,936893
 11
12,124782
 21
-25,636893
 39
0
 62
0
  0
POLYLINE
  6
DASH
  8
Segundo Plano
 41
0,100000
 41
0,100000
 62
0
 66
1
  0
VERTEX
 10
62,378920
 20
5,190080
  0
VERTEX
 10
62,378920
 20
3,455422
  0
VERTEX
 10
62,305925
 20
3,455422
  0
VERTEX
 10
62,305925
 20
1,608961
  0
SEQEND
  0
LINE
  8
Segundo Plano
  6
CONTINUOUS
 10
62,778920
 20
5,190080
 11
62,378920
 21
5,990080
 39
0
 62
0
  0
LINE
  8
Segundo Plano
  6
CONTINUOUS
 10
62,378920
 20
5,990080
 11
61,978920
 21
5,190080
 39
0
 62
0
  0
LINE
  8
Segundo Plano
  6
CONTINUOUS
 10
61,978920
 20
5,190080
 11
62,778920
 21
5,190080
 39
0
 62
0
  0
POLYLINE
  6
DASH
  8
Segundo Plano
 41
0,100000
 41
0,100000
 62
0
 66
1
  0
VERTEX
 10
51,541814
 20
7,752286
  0
VERTEX
 10
51,004161
 20
7,752286
  0
VERTEX
 10
51,004161
 20
4,273757
  0
VERTEX
 10
50,354704
 20
4,273757
  0
SEQEND
  0
LINE
  8
Segundo Plano
  6
CONTINUOUS
 10
51,541814
 20
7,352286
 11
52,341814
 21
7,752286
 39
0
 62
0
  0
LINE
  8
Segundo Plano
  6
CONTINUOUS
 10
52,341814
 20
7,752286
 11
51,541814
 21
8,152286
 39
0
 62
0
  0
LINE
  8
Segundo Plano
  6
CONTINUOUS
 10
51,541814
 20
8,152286
 11
51,541814
 21
7,352286
 39
0
 62
0
0
ENDSEC
0
EOF
